<mxfile host="app.diagrams.net" modified="2021-12-28T06:15:01.070Z" agent="5.0 (Windows NT 10.0; Win64; x64) AppleWebKit/537.36 (KHTML, like Gecko) Chrome/96.0.4664.110 Safari/537.36" etag="V2Bx1rWwhq3XpMtfEsIS" version="15.9.6" type="github">
  <diagram name="Page-1" id="b5b7bab2-c9e2-2cf4-8b2a-24fd1a2a6d21">
    <mxGraphModel dx="894" dy="1740" grid="1" gridSize="10" guides="1" tooltips="1" connect="1" arrows="1" fold="1" page="1" pageScale="1" pageWidth="827" pageHeight="1169" background="none" math="0" shadow="0">
      <root>
        <mxCell id="0" />
        <mxCell id="1" parent="0" />
        <mxCell id="6jrHv9r_HxOq66mFMlWG-3" value="&lt;div&gt;tf-sample&lt;/div&gt;&lt;div&gt;├── module&lt;/div&gt;&lt;div&gt;│&amp;nbsp; &amp;nbsp;├── ALB&lt;/div&gt;&lt;div&gt;│&amp;nbsp; &amp;nbsp;│&amp;nbsp; &amp;nbsp;├── mainf.tf&lt;/div&gt;&lt;div&gt;│&amp;nbsp; &amp;nbsp;│&amp;nbsp; &amp;nbsp;├── output.tf&lt;/div&gt;&lt;div&gt;│&amp;nbsp; &amp;nbsp;│&amp;nbsp; &amp;nbsp;└── variables.tf&lt;/div&gt;&lt;div&gt;│&amp;nbsp; &amp;nbsp;├── EC2&lt;/div&gt;&lt;div&gt;│&amp;nbsp; &amp;nbsp;│&amp;nbsp; &amp;nbsp;├── mainf.tf&lt;/div&gt;&lt;div&gt;│&amp;nbsp; &amp;nbsp;│&amp;nbsp; &amp;nbsp;├── output.tf&lt;/div&gt;&lt;div&gt;│&amp;nbsp; &amp;nbsp;│&amp;nbsp; &amp;nbsp;└── variables.tf&lt;/div&gt;&lt;div&gt;│&amp;nbsp; &amp;nbsp;├── EC2SG&lt;/div&gt;&lt;div&gt;│&amp;nbsp; &amp;nbsp;│&amp;nbsp; &amp;nbsp;├── mainf.tf&lt;/div&gt;&lt;div&gt;│&amp;nbsp; &amp;nbsp;│&amp;nbsp; &amp;nbsp;├── output.tf&lt;/div&gt;&lt;div&gt;│&amp;nbsp; &amp;nbsp;│&amp;nbsp; &amp;nbsp;└── variables.tf&lt;/div&gt;&lt;div&gt;│&amp;nbsp; &amp;nbsp;├── RDS&lt;/div&gt;&lt;div&gt;│&amp;nbsp; &amp;nbsp;│&amp;nbsp; &amp;nbsp;├── mainf.tf&lt;/div&gt;&lt;div&gt;│&amp;nbsp; &amp;nbsp;│&amp;nbsp; &amp;nbsp;├── output.tf&lt;/div&gt;&lt;div&gt;│&amp;nbsp; &amp;nbsp;│&amp;nbsp; &amp;nbsp;└── variables.tf&lt;/div&gt;&lt;div&gt;│&amp;nbsp; &amp;nbsp;├── ROUTE&lt;/div&gt;&lt;div&gt;│&amp;nbsp; &amp;nbsp;│&amp;nbsp; &amp;nbsp;├── mainf.tf&lt;/div&gt;&lt;div&gt;│&amp;nbsp; &amp;nbsp;│&amp;nbsp; &amp;nbsp;├── output&lt;/div&gt;&lt;div&gt;│&amp;nbsp; &amp;nbsp;│&amp;nbsp; &amp;nbsp;└── variables.tf&lt;/div&gt;&lt;div&gt;│&amp;nbsp; &amp;nbsp;├── SUBNET&lt;/div&gt;&lt;div&gt;│&amp;nbsp; &amp;nbsp;│&amp;nbsp; &amp;nbsp;├── mainf.tf&lt;/div&gt;&lt;div&gt;│&amp;nbsp; &amp;nbsp;│&amp;nbsp; &amp;nbsp;├── output.tf&lt;/div&gt;&lt;div&gt;│&amp;nbsp; &amp;nbsp;│&amp;nbsp; &amp;nbsp;└── variables.tf&lt;/div&gt;&lt;div&gt;│&amp;nbsp; &amp;nbsp;└── VPC&lt;/div&gt;&lt;div&gt;│&amp;nbsp; &amp;nbsp; &amp;nbsp; &amp;nbsp;├── mainf.tf&lt;/div&gt;&lt;div&gt;│&amp;nbsp; &amp;nbsp; &amp;nbsp; &amp;nbsp;├── output.tf&lt;/div&gt;&lt;div&gt;│&amp;nbsp; &amp;nbsp; &amp;nbsp; &amp;nbsp;└── variables.tf&lt;/div&gt;&lt;div&gt;├── dev(開発環境)&lt;/div&gt;&lt;div&gt;│&amp;nbsp; &amp;nbsp;└── main.tf (VPC・SUBNET・ROUTE・EC2・EC2SG・RDS)&lt;/div&gt;&lt;div&gt;└── prd(本番環境)&lt;/div&gt;&lt;div&gt;&amp;nbsp; &amp;nbsp; └── main.tf(VPC・SUBNET・ROUTE・EC2・EC2SG・RDS・ALB)&lt;/div&gt;" style="text;html=1;align=left;verticalAlign=middle;resizable=0;points=[];autosize=1;strokeColor=none;fillColor=none;" vertex="1" parent="1">
          <mxGeometry x="30" y="-180" width="410" height="480" as="geometry" />
        </mxCell>
      </root>
    </mxGraphModel>
  </diagram>
</mxfile>
